<svg xmlns="http://www.w3.org/2000/svg" version="1.0" width="80.000000pt" height="79.000000pt" viewBox="0 0 80.000000 79.000000" preserveAspectRatio="xMidYMid meet">

<g transform="translate(0.000000,79.000000) scale(0.100000,-0.100000)" fill="#4c53b6" stroke="none">
<path d="M280 675 c-75 -75 -120 -127 -120 -139 0 -15 32 11 120 99 l120 119 34 -33 c19 -18 41 -31 50 -29 13 2 4 15 -33 52 l-50 50 -121 -119z" fill="#4c53b6"/>
<path d="M120 496 c0 -106 4 -177 10 -181 7 -4 10 53 10 164 l0 171 54 0 c30 0 58 5 61 10 4 6 -20 10 -64 10 l-71 0 0 -174z" fill="#4c53b6"/>
<path d="M325 660 c-4 -7 53 -10 164 -10 l171 0 0 -49 c0 -28 5 -53 10 -56 6 -4 10 18 10 59 l0 66 -174 0 c-106 0 -177 -4 -181 -10z" fill="#4c53b6"/>
<path d="M638 517 l122 -123 -30 -29 c-16 -16 -30 -38 -30 -49 0 -16 9 -11 50 29 l50 49 -122 123 c-75 76 -130 123 -143 123 -14 0 14 -34 103 -123z" fill="#4c53b6"/>
<path d="M210 470 c0 -50 1 -51 28 -48 25 3 27 6 27 48 0 42 -2 45 -27 48 -27 3 -28 2 -28 -48z m40 0 c0 -16 -4 -32 -10 -35 -6 -4 -10 10 -10 35 0 25 4 39 10 35 6 -3 10 -19 10 -35z" fill="#4c53b6"/>
<path d="M290 470 c0 -43 3 -50 20 -50 22 0 27 15 8 23 -10 4 -9 8 2 16 13 10 13 12 0 22 -11 8 -12 12 -2 16 19 8 14 23 -8 23 -17 0 -20 -7 -20 -50z" fill="#4c53b6"/>
<path d="M350 490 c0 -23 4 -30 20 -30 21 0 27 -15 10 -25 -5 -3 -10 -1 -10 4 0 6 -4 11 -10 11 -5 0 -10 -7 -10 -15 0 -10 10 -15 30 -15 26 0 30 4 30 26 0 17 -6 28 -20 31 -11 3 -20 11 -20 18 0 9 8 11 22 7 14 -3 19 -2 14 6 -4 7 -18 12 -32 12 -20 0 -24 -5 -24 -30z" fill="#4c53b6"/>
<path d="M420 470 c0 -38 4 -50 15 -50 11 0 15 12 15 50 0 38 -4 50 -15 50 -11 0 -15 -12 -15 -50z" fill="#4c53b6"/>
<path d="M464 506 c-3 -8 -4 -29 -2 -48 3 -29 6 -33 33 -33 23 0 31 5 33 23 2 14 -2 22 -12 22 -8 0 -17 -10 -19 -22 -2 -13 -5 -3 -6 21 -1 35 2 41 12 32 15 -12 30 -4 21 10 -8 14 -54 10 -60 -5z" fill="#4c53b6"/>
<path d="M540 470 c0 -27 5 -50 10 -50 6 0 10 20 10 45 0 25 5 45 10 45 6 0 10 -20 10 -45 0 -25 5 -45 10 -45 6 0 10 23 10 50 0 49 -1 50 -30 50 -29 0 -30 -1 -30 -50z" fill="#4c53b6"/>
<path d="M48 443 l-48 -48 123 -123 c73 -73 130 -122 142 -122 14 0 -16 35 -103 123 l-122 122 31 31 c17 17 29 39 27 48 -2 13 -14 6 -50 -31z" fill="#4c53b6"/>
<path d="M660 311 l0 -171 -54 0 c-30 0 -58 -4 -61 -10 -4 -6 20 -10 64 -10 l71 0 0 174 c0 106 -4 177 -10 181 -7 4 -10 -53 -10 -164z" fill="#4c53b6"/>
<path d="M217 374 c-15 -16 -7 -56 13 -61 20 -5 29 -43 10 -43 -5 0 -10 5 -10 10 0 6 -5 10 -11 10 -6 0 -9 -6 -6 -12 2 -7 15 -13 28 -13 32 0 39 39 10 55 -12 6 -21 17 -21 25 0 18 16 20 24 3 3 -7 5 -4 3 7 -2 20 -27 32 -40 19z" fill="#4c53b6"/>
<path d="M284 364 c3 -9 6 -36 6 -60 0 -24 5 -44 10 -44 6 0 10 23 10 50 0 28 5 50 10 50 6 0 10 5 10 10 0 6 -12 10 -26 10 -20 0 -25 -4 -20 -16z" fill="#4c53b6"/>
<path d="M340 320 c0 -61 0 -61 28 -58 25 3 27 7 30 52 2 27 -2 54 -7 59 -8 8 -11 -6 -11 -46 0 -31 -4 -57 -10 -57 -5 0 -10 22 -10 49 0 28 -4 53 -10 56 -6 4 -10 -17 -10 -55z" fill="#4c53b6"/>
<path d="M420 319 c0 -60 0 -60 28 -57 25 3 27 7 30 52 3 51 -6 66 -40 66 -15 0 -18 -9 -18 -61z m40 -5 c0 -59 -24 -55 -28 4 -2 33 0 42 12 42 12 0 16 -11 16 -46z" fill="#4c53b6"/>
<path d="M503 320 c0 -36 2 -50 4 -32 2 17 2 47 0 65 -2 17 -4 3 -4 -33z" fill="#4c53b6"/>
<path d="M547 374 c-4 -4 -7 -31 -7 -61 0 -50 1 -53 25 -53 25 0 26 2 23 57 -2 43 -7 59 -18 61 -9 1 -19 0 -23 -4z m23 -59 c0 -25 -4 -45 -10 -45 -5 0 -10 20 -10 45 0 25 5 45 10 45 6 0 10 -20 10 -45z" fill="#4c53b6"/>
<path d="M518 153 l-118 -117 -33 32 c-18 18 -42 32 -52 32 -16 0 -8 -12 33 -52 l54 -51 120 120 c76 76 119 126 117 137 -3 11 -38 -18 -121 -101z" fill="#4c53b6"/>
<path d="M120 186 l0 -66 174 0 c106 0 177 4 181 10 4 7 -53 10 -164 10 l-171 0 0 49 c0 28 -4 53 -10 56 -6 4 -10 -18 -10 -59z" fill="#4c53b6"/>
</g>
</svg>